@startuml
enum CurrencyType {
    ETHEREUM
    BITCOIN
}
interface CreateWalletRequest extends InferType
class JwtAuthGuard
interface DeleteWalletRequest extends InferType
enum CurrencyTypeUILabels {
    ETHEREUM
    BITCOIN
}
class ContactAddress {
    +walletAddress: string
    +userId: number
    +user?: User
    +contacts?: Contact[]
}
class Contact {
    +contactName: string
    +userId: number
    +user?: User
    +addresses: ContactAddress[]
}
class ContactBuilder {
    -contactName: string
    -userId: number
    -addresses: string[]
    +setContactName(name: string): this
    +setUserId(userId: number): this
    +setAddresses(addresses: string[]): this
    +build(): Contact
}
class Transaction {
    +id: number
    +transactionAddress: string
    +walletIn: string
    +walletOut: string
    +amount: string
    +gasPrice?: string
    +gasLimit?: string
    +createdAt: Date
    +tags: Tag[]
    +contactIn?: Contact
    +contactOut?: Contact
}
class TransactionBuilder {
    -id: number
    -address: string
    -walletIn: string
    -walletOut: string
    -contactIn: Contact
    -contactOut: Contact
    -amount: string
    -gasPrice: string
    -gasLimit: string
    -createdAt: Date
    -tags: Tag[]
    +setId(id: number): this
    +setAddress(address: string): this
    +setWalletIn(address: string): this
    +setWalletOut(address: string): this
    +setContactIn(contact: Contact): this
    +setContactOut(contact: Contact): this
    +setAmount(amount: number): this
    +setGasPrice(price: string): this
    +setGasLimit(limit: string): this
    +setCreatedAt(timestamp: string): this
    +setTags(tags: Tag[]): this
    +setTransaction(transaction: Transaction): this
    +build(): Transaction
}
class Tag {
    +tagName: string
    +userId: number
    +user: User
    +transactions: Transaction[]
}
enum Role {
    BASIC
    PRO
}
class Filter {
    +name: string
    +userId: number
    +user?: User
    +currencyType: CurrencyType
    +txnIn: boolean
    +txnOut: boolean
    +range: string
    +tagNames: string[]
    +contactNames: string[]
}
class FilterBuilder {
    -name: string
    -userId: number
    -currencyType: CurrencyType
    -txnIn: boolean
    -txnOut: boolean
    -range: string
    -tagNames: string[]
    -contactNames: string[]
    +setName(name: string): this
    +setUserId(userId: number): this
    +setCurrencyType(type: CurrencyType): this
    +setTxns(txnIn: boolean, txnOut: boolean): this
    +setRange(range: string): this
    +setTagNames(names: string[]): this
    +setContactNames(names: string[]): this
    +build(): Filter
}
class User {
    +id: number
    +firstName: string
    +lastName: string
    +email: string
    +password: string
    +areNotificationsEnabled: boolean
    +role: Role
    +createdAt: Date
    +wallets?: Wallet[]
    +tags?: Tag[]
    +contacts?: Contact[]
    +filters?: Filter[]
}
class Wallet {
    +address: string
    +userId: number
    +name: string
    +user?: User
    +currencyType: CurrencyType
    +transactions: Transaction[]
}
class WalletBuilder {
    -address: string
    -userId: number
    -name: string
    -user: User
    -transactions: Transaction[]
    -balance: string
    +setAddress(address: string): this
    +setUserId(userId: number): this
    +setName(name: string): this
    +setUser(user: User): this
    +setTransactions(transactions: Transaction[]): this
    +setWallet(wallet: Wallet): this
    +setBalance(balance: string): this
    +build(): WalletWithBalance
}
interface WalletWithBalance extends Wallet {
    +balance: string
}
interface GetWalletsRequest extends InferType
abstract class AbstractGateway {
    -uri: string
    -fetch: any
    #request(method: Method, headers: Headers, path: string, body: any): Promise<T>
    #{abstract} handleError(response: any): Promise<void>
}
enum Method {
    POST
    GET
    PUT
    PATCH
    DELETE
}
class HttpError extends Error {
    +message: string
    +status: number
}
abstract class AbstractServiceGateway extends AbstractGateway {
    #handleError(response: any): Promise<void>
}
interface GetTransactionsRequest extends InferType
interface UpdateWalletRequest extends InferType
abstract class AbstractEdgeGatewayStrategy extends AbstractServiceGateway {
    +{abstract} createWallet(req: CreateWalletRequest): Promise<WalletWithBalance>
    +{abstract} deleteWallet(req: DeleteWalletRequest): Promise<WalletWithBalance>
    +{abstract} getWallets(req: GetWalletsRequest): Promise<WalletWithBalance[]>
    +{abstract} updateWallet(req: UpdateWalletRequest): Promise<WalletWithBalance>
    +{abstract} getTransactions(req: GetTransactionsRequest): Promise<Transaction[]>
}
class EthEdgeGatewayStrategy extends AbstractEdgeGatewayStrategy {
    -configService: ConfigService<Record<string, unknown>, false>
    +createWallet(req: CreateWalletRequest): Promise<WalletWithBalance>
    +updateWallet(req: UpdateWalletRequest): Promise<WalletWithBalance>
    +getWallets(req: GetWalletsRequest): Promise<WalletWithBalance[]>
    +getTransactions(req: GetTransactionsRequest): Promise<Transaction[]>
    +deleteWallet(req: DeleteWalletRequest): Promise<WalletWithBalance>
}
class BtcEdgeGatewayStrategy extends AbstractEdgeGatewayStrategy {
    -configService: ConfigService<Record<string, unknown>, false>
    +createWallet(req: CreateWalletRequest): Promise<WalletWithBalance>
    +updateWallet(req: UpdateWalletRequest): Promise<WalletWithBalance>
    +getWallets(req: GetWalletsRequest): Promise<WalletWithBalance[]>
    +getTransactions(req: GetTransactionsRequest): Promise<Transaction[]>
    +deleteWallet(req: DeleteWalletRequest): Promise<WalletWithBalance>
}
class EdgeGatewayStrategyFactory {
    -ethEdgeGatewayStrategy: EthEdgeGatewayStrategy
    -btcEdgeGatewayStrategy: BtcEdgeGatewayStrategy
    +get(currencyType: CurrencyType): AbstractEdgeGatewayStrategy
}
class WalletsService {
    -edgeGatewayStrategyFactory: EdgeGatewayStrategyFactory
    +create(req: CreateWalletRequest): Promise<WalletWithBalance>
    +delete(req: DeleteWalletRequest): Promise<WalletWithBalance>
    +findAll(req: GetWalletsRequest): Promise<WalletWithBalance[]>
    +update(req: UpdateWalletRequest): Promise<WalletWithBalance>
}
class CanMutateResourceGuard implements CanActivate {
    +canActivate(context: ExecutionContext): boolean | Promise<boolean> | Observable<boolean>
}
class CanAccessResourceGuard implements CanActivate {
    +canActivate(context: ExecutionContext): boolean | Promise<boolean> | Observable<boolean>
}
class WalletsController {
    -walletsService: WalletsService
    +create(body: CreateWalletRequest): Promise<WalletWithBalance>
    +findAll(params: GetWalletsRequest): Promise<WalletWithBalance[]>
    +delete(params: DeleteWalletRequest): Promise<WalletWithBalance>
    +update(body: UpdateWalletRequest): Promise<WalletWithBalance>
}
ContactAddress --> "1" User
ContactAddress --> "*" Contact
Contact --> "1" User
Contact --> "*" ContactAddress
ContactBuilder --> "1" Contact
Transaction --> "*" Tag
Transaction --> "1" Contact
TransactionBuilder --> "1" Contact
TransactionBuilder --> "*" Tag
TransactionBuilder --> "1" Tag
TransactionBuilder --> "1" Transaction
Tag --> "1" User
Tag --> "*" Transaction
Filter --> "1" User
Filter --> "1" CurrencyType
FilterBuilder --> "1" CurrencyType
FilterBuilder --> "1" Filter
User --> "1" Role
User --> "*" Wallet
User --> "*" Tag
User --> "*" Contact
User --> "*" Filter
Wallet --> "1" User
Wallet --> "1" CurrencyType
Wallet --> "*" Transaction
WalletBuilder --> "1" User
WalletBuilder --> "*" Transaction
WalletBuilder --> "1" Transaction
WalletBuilder --> "1" Wallet
WalletBuilder --> "1" WalletWithBalance
AbstractGateway --> "1" Method
AbstractEdgeGatewayStrategy --> "1" CreateWalletRequest
AbstractEdgeGatewayStrategy --> "1" WalletWithBalance
AbstractEdgeGatewayStrategy --> "1" DeleteWalletRequest
AbstractEdgeGatewayStrategy --> "1" GetWalletsRequest
AbstractEdgeGatewayStrategy --> "*" WalletWithBalance
AbstractEdgeGatewayStrategy --> "1" UpdateWalletRequest
AbstractEdgeGatewayStrategy --> "1" GetTransactionsRequest
AbstractEdgeGatewayStrategy --> "*" Transaction
EthEdgeGatewayStrategy --> "1" CreateWalletRequest
EthEdgeGatewayStrategy --> "1" WalletWithBalance
EthEdgeGatewayStrategy --> "1" UpdateWalletRequest
EthEdgeGatewayStrategy --> "1" GetWalletsRequest
EthEdgeGatewayStrategy --> "*" WalletWithBalance
EthEdgeGatewayStrategy --> "1" GetTransactionsRequest
EthEdgeGatewayStrategy --> "*" Transaction
EthEdgeGatewayStrategy --> "1" DeleteWalletRequest
BtcEdgeGatewayStrategy --> "1" CreateWalletRequest
BtcEdgeGatewayStrategy --> "1" WalletWithBalance
BtcEdgeGatewayStrategy --> "1" UpdateWalletRequest
BtcEdgeGatewayStrategy --> "1" GetWalletsRequest
BtcEdgeGatewayStrategy --> "*" WalletWithBalance
BtcEdgeGatewayStrategy --> "1" GetTransactionsRequest
BtcEdgeGatewayStrategy --> "*" Transaction
BtcEdgeGatewayStrategy --> "1" DeleteWalletRequest
EdgeGatewayStrategyFactory --> "1" EthEdgeGatewayStrategy
EdgeGatewayStrategyFactory --> "1" BtcEdgeGatewayStrategy
EdgeGatewayStrategyFactory --> "1" CurrencyType
EdgeGatewayStrategyFactory --> "1" AbstractEdgeGatewayStrategy
WalletsService --> "1" EdgeGatewayStrategyFactory
WalletsService --> "1" CreateWalletRequest
WalletsService --> "1" WalletWithBalance
WalletsService --> "1" DeleteWalletRequest
WalletsService --> "1" GetWalletsRequest
WalletsService --> "*" WalletWithBalance
WalletsService --> "1" UpdateWalletRequest
WalletsController --> "1" WalletsService
WalletsController --> "1" CreateWalletRequest
WalletsController --> "1" WalletWithBalance
WalletsController --> "1" GetWalletsRequest
WalletsController --> "*" WalletWithBalance
WalletsController --> "1" DeleteWalletRequest
WalletsController --> "1" UpdateWalletRequest
@enduml