@startuml
enum CurrencyType {
    ETHEREUM
    BITCOIN
}
enum CurrencyTypeUILabels {
    ETHEREUM
    BITCOIN
}
interface WalletWithBalance extends Wallet {
    +balance: string
}
class Wallet {
    +address: string
    +userId: number
    +name: string
    +user?: User
    +currencyType: CurrencyType
    +transactions: Transaction[]
}
class WalletBuilder {
    -address: string
    -userId: number
    -name: string
    -user: User
    -transactions: Transaction[]
    -balance: string
    +setAddress(address: string): this
    +setUserId(userId: number): this
    +setName(name: string): this
    +setUser(user: User): this
    +setTransactions(transactions: Transaction[]): this
    +setWallet(wallet: Wallet): this
    +setBalance(balance: string): this
    +build(): WalletWithBalance
}
class ContactAddress {
    +walletAddress: string
    +userId: number
    +user?: User
    +contacts?: Contact[]
}
class Contact {
    +contactName: string
    +userId: number
    +user?: User
    +addresses: ContactAddress[]
}
class ContactBuilder {
    -contactName: string
    -userId: number
    -addresses: string[]
    +setContactName(name: string): this
    +setUserId(userId: number): this
    +setAddresses(addresses: string[]): this
    +build(): Contact
}
enum Role {
    BASIC
    PRO
}
class Filter {
    +name: string
    +userId: number
    +user?: User
    +currencyType: CurrencyType
    +txnIn: boolean
    +txnOut: boolean
    +range: string
    +tagNames: string[]
    +contactNames: string[]
}
class FilterBuilder {
    -name: string
    -userId: number
    -currencyType: CurrencyType
    -txnIn: boolean
    -txnOut: boolean
    -range: string
    -tagNames: string[]
    -contactNames: string[]
    +setName(name: string): this
    +setUserId(userId: number): this
    +setCurrencyType(type: CurrencyType): this
    +setTxns(txnIn: boolean, txnOut: boolean): this
    +setRange(range: string): this
    +setTagNames(names: string[]): this
    +setContactNames(names: string[]): this
    +build(): Filter
}
class User {
    +id: number
    +firstName: string
    +lastName: string
    +email: string
    +password: string
    +areNotificationsEnabled: boolean
    +role: Role
    +createdAt: Date
    +wallets?: Wallet[]
    +tags?: Tag[]
    +contacts?: Contact[]
    +filters?: Filter[]
}
class Tag {
    +tagName: string
    +userId: number
    +user: User
    +transactions: Transaction[]
}
class Transaction {
    +id: number
    +transactionAddress: string
    +walletIn: string
    +walletOut: string
    +amount: string
    +gasPrice?: string
    +gasLimit?: string
    +createdAt: Date
    +tags: Tag[]
    +contactIn?: Contact
    +contactOut?: Contact
}
class TransactionBuilder {
    -id: number
    -address: string
    -walletIn: string
    -walletOut: string
    -contactIn: Contact
    -contactOut: Contact
    -amount: string
    -gasPrice: string
    -gasLimit: string
    -createdAt: Date
    -tags: Tag[]
    +setId(id: number): this
    +setAddress(address: string): this
    +setWalletIn(address: string): this
    +setWalletOut(address: string): this
    +setContactIn(contact: Contact): this
    +setContactOut(contact: Contact): this
    +setAmount(amount: number): this
    +setGasPrice(price: string): this
    +setGasLimit(limit: string): this
    +setCreatedAt(timestamp: string): this
    +setTags(tags: Tag[]): this
    +setTransaction(transaction: Transaction): this
    +build(): Transaction
}
class AlchemyDecorator {
    -delegate: Alchemy
    -configService: ConfigService<Record<string, unknown>, false>
    +getBalance(address: string): Promise<BigNumber>
    +getAssetTransfers(params: AssetTransfersWithMetadataParams): Promise<AssetTransfersWithMetadataResponse>
    +getTransaction(hash: string): Promise<TransactionResponse>
}
class AlchemyNodeServiceFacade {
    -alchemy: AlchemyDecorator
    +getBalance(address: string): Promise<string>
    +getTransactions(wallet: string): Promise<Transaction[]>
    -getTransaction(hash: string): Promise<TransactionResponse>
}
interface CreateWalletRequest extends InferType
abstract class AbstractGateway {
    -uri: string
    -fetch: any
    #request(method: Method, headers: Headers, path: string, body: any): Promise<T>
    #{abstract} handleError(response: any): Promise<void>
}
enum Method {
    POST
    GET
    PUT
    PATCH
    DELETE
}
class HttpError extends Error {
    +message: string
    +status: number
}
abstract class AbstractServiceGateway extends AbstractGateway {
    #handleError(response: any): Promise<void>
}
class AlchemyNodeGateway extends AbstractServiceGateway {
    -configService: ConfigService<Record<string, unknown>, false>
    +updateWebhookAddresses(addressesToAdd: string[], addressesToRemove: string[]): Promise<void>
}
interface DeleteWalletRequest extends InferType
interface UpdateWalletRequest extends InferType
class WalletsService {
    -walletRepository: Repository<Wallet>
    -alchemyNodeServiceFacade: AlchemyNodeServiceFacade
    -transactionsService: TransactionsService
    -alchemyNodeGateway: AlchemyNodeGateway
    +create(req: CreateWalletRequest): Promise<WalletWithBalance>
    +findOne(address: string, userId: number): Promise<Wallet>
    +findAll(userId: number): Promise<WalletWithBalance[]>
    +delete(deleteWalletReq: DeleteWalletRequest): Promise<WalletWithBalance>
    +update(updateWalletReq: UpdateWalletRequest): Promise<WalletWithBalance>
}
abstract class AbstractNotificationStrategy {
    +{abstract} sendNotification(notification: Notification): Promise<void>
}
interface Notification {
    +to: string
    +title: string
    +body: string
    +attachment?: { filename: string; content: string; }
}
class EmailNotificationStrategy extends AbstractNotificationStrategy {
    -transporter: nodemailer.Transporter
    -from: string
    -configService: ConfigService<Record<string, unknown>, false>
    +sendNotification(notification: Notification): Promise<void>
}
class NotificationStrategyFactory {
    -emailNotificationStrategy: EmailNotificationStrategy
    +get(strategy: NotificationStrategy): AbstractNotificationStrategy
}
enum NotificationStrategy {
    EMAIL
    PUSH_NOTIFICATION
}
class TransactionNotificationService {
    -walletsRepository: Repository<Wallet>
    -notificationStrategyFactory: NotificationStrategyFactory
    +sendTransactionNotifications(transactions: Transaction[], currencyType: CurrencyType): Promise<void>
    -getBody(key: "walletOut" | "walletIn", wallet: Wallet, transaction: Transaction, currencyType: CurrencyType): string
    -getTitle(key: "walletOut" | "walletIn", currencyType: CurrencyType): string
    -{static} keys: readonly ["walletOut", "walletIn"]
}
class TransactionsService {
    -transactionsRepository: Repository<Transaction>
    -alchemyNodeServiceFacade: AlchemyNodeServiceFacade
    -walletsService: WalletsService
    -walletsRepository: Repository<Wallet>
    -transactionNotificationService: TransactionNotificationService
    +backfillTransactions(address: string): Promise<void>
    +handleAddressActivityEvent(addressActivityEvent: AddressActivityEvent): Promise<void>
    +findAll(userId: number): Promise<Transaction[]>
    +cleanup(address: string): Promise<Transaction[]>
}
interface GetTransactionsRequest extends InferType
class TransactionsController {
    -transactionsService: TransactionsService
    +create(body: AddressActivityEvent): Promise<void>
    +findAll(params: GetTransactionsRequest): Promise<Transaction[]>
}
Wallet --> "1" User
Wallet --> "1" CurrencyType
Wallet --> "*" Transaction
WalletBuilder --> "1" User
WalletBuilder --> "*" Transaction
WalletBuilder --> "1" Transaction
WalletBuilder --> "1" Wallet
WalletBuilder --> "1" WalletWithBalance
ContactAddress --> "1" User
ContactAddress --> "*" Contact
Contact --> "1" User
Contact --> "*" ContactAddress
ContactBuilder --> "1" Contact
Filter --> "1" User
Filter --> "1" CurrencyType
FilterBuilder --> "1" CurrencyType
FilterBuilder --> "1" Filter
User --> "1" Role
User --> "*" Wallet
User --> "*" Tag
User --> "*" Contact
User --> "*" Filter
Tag --> "1" User
Tag --> "*" Transaction
Transaction --> "*" Tag
Transaction --> "1" Contact
TransactionBuilder --> "1" Contact
TransactionBuilder --> "*" Tag
TransactionBuilder --> "1" Tag
TransactionBuilder --> "1" Transaction
AlchemyNodeServiceFacade --> "1" AlchemyDecorator
AlchemyNodeServiceFacade --> "*" Transaction
AbstractGateway --> "1" Method
WalletsService --> "1" Wallet
WalletsService --> "1" AlchemyNodeServiceFacade
WalletsService --> "1" TransactionsService
WalletsService --> "1" AlchemyNodeGateway
WalletsService --> "1" CreateWalletRequest
WalletsService --> "1" WalletWithBalance
WalletsService --> "*" WalletWithBalance
WalletsService --> "1" DeleteWalletRequest
WalletsService --> "1" UpdateWalletRequest
AbstractNotificationStrategy --> "1" Notification
EmailNotificationStrategy --> "1" Notification
NotificationStrategyFactory --> "1" EmailNotificationStrategy
NotificationStrategyFactory --> "1" NotificationStrategy
NotificationStrategyFactory --> "1" AbstractNotificationStrategy
TransactionNotificationService --> "1" Wallet
TransactionNotificationService --> "1" NotificationStrategyFactory
TransactionNotificationService --> "1" Transaction
TransactionNotificationService --> "1" CurrencyType
TransactionsService --> "1" Transaction
TransactionsService --> "1" AlchemyNodeServiceFacade
TransactionsService --> "1" WalletsService
TransactionsService --> "1" Wallet
TransactionsService --> "1" TransactionNotificationService
TransactionsService --> "*" Transaction
TransactionsController --> "1" TransactionsService
TransactionsController --> "1" GetTransactionsRequest
TransactionsController --> "*" Transaction
@enduml