@startuml
class JwtAuthGuard
class CanMutateResourceGuard implements CanActivate {
    +canActivate(context: ExecutionContext): boolean | Promise<boolean> | Observable<boolean>
}
enum CurrencyType {
    ETHEREUM
    BITCOIN
}
enum FileType {
    CSV
}
interface CreateTransactionHistoryReportRequest extends InferType
abstract class AbstractGateway {
    -uri: string
    -fetch: any
    #request(method: Method, headers: Headers, path: string, body: any): Promise<T>
    #{abstract} handleError(response: any): Promise<void>
}
enum Method {
    POST
    GET
    PUT
    PATCH
    DELETE
}
class HttpError extends Error {
    +message: string
    +status: number
}
abstract class AbstractServiceGateway extends AbstractGateway {
    #handleError(response: any): Promise<void>
}
interface CreateWalletRequest extends InferType
class ContactAddress {
    +walletAddress: string
    +userId: number
    +user?: User
    +contacts?: Contact[]
}
class Contact {
    +contactName: string
    +userId: number
    +user?: User
    +addresses: ContactAddress[]
}
class ContactBuilder {
    -contactName: string
    -userId: number
    -addresses: string[]
    +setContactName(name: string): this
    +setUserId(userId: number): this
    +setAddresses(addresses: string[]): this
    +build(): Contact
}
enum CurrencyTypeUILabels {
    ETHEREUM
    BITCOIN
}
class Transaction {
    +id: number
    +transactionAddress: string
    +walletIn: string
    +walletOut: string
    +amount: string
    +gasPrice?: string
    +gasLimit?: string
    +createdAt: Date
    +tags: Tag[]
    +contactIn?: Contact
    +contactOut?: Contact
}
class TransactionBuilder {
    -id: number
    -address: string
    -walletIn: string
    -walletOut: string
    -contactIn: Contact
    -contactOut: Contact
    -amount: string
    -gasPrice: string
    -gasLimit: string
    -createdAt: Date
    -tags: Tag[]
    +setId(id: number): this
    +setAddress(address: string): this
    +setWalletIn(address: string): this
    +setWalletOut(address: string): this
    +setContactIn(contact: Contact): this
    +setContactOut(contact: Contact): this
    +setAmount(amount: number): this
    +setGasPrice(price: string): this
    +setGasLimit(limit: string): this
    +setCreatedAt(timestamp: string): this
    +setTags(tags: Tag[]): this
    +setTransaction(transaction: Transaction): this
    +build(): Transaction
}
class Tag {
    +tagName: string
    +userId: number
    +user: User
    +transactions: Transaction[]
}
enum Role {
    BASIC
    PRO
}
class Filter {
    +name: string
    +userId: number
    +user?: User
    +currencyType: CurrencyType
    +txnIn: boolean
    +txnOut: boolean
    +range: string
    +tagNames: string[]
    +contactNames: string[]
}
class FilterBuilder {
    -name: string
    -userId: number
    -currencyType: CurrencyType
    -txnIn: boolean
    -txnOut: boolean
    -range: string
    -tagNames: string[]
    -contactNames: string[]
    +setName(name: string): this
    +setUserId(userId: number): this
    +setCurrencyType(type: CurrencyType): this
    +setTxns(txnIn: boolean, txnOut: boolean): this
    +setRange(range: string): this
    +setTagNames(names: string[]): this
    +setContactNames(names: string[]): this
    +build(): Filter
}
class User {
    +id: number
    +firstName: string
    +lastName: string
    +email: string
    +password: string
    +areNotificationsEnabled: boolean
    +role: Role
    +createdAt: Date
    +wallets?: Wallet[]
    +tags?: Tag[]
    +contacts?: Contact[]
    +filters?: Filter[]
}
class Wallet {
    +address: string
    +userId: number
    +name: string
    +user?: User
    +currencyType: CurrencyType
    +transactions: Transaction[]
}
class WalletBuilder {
    -address: string
    -userId: number
    -name: string
    -user: User
    -transactions: Transaction[]
    -balance: string
    +setAddress(address: string): this
    +setUserId(userId: number): this
    +setName(name: string): this
    +setUser(user: User): this
    +setTransactions(transactions: Transaction[]): this
    +setWallet(wallet: Wallet): this
    +setBalance(balance: string): this
    +build(): WalletWithBalance
}
interface WalletWithBalance extends Wallet {
    +balance: string
}
interface GetWalletsRequest extends InferType
interface GetTransactionsRequest extends InferType
interface DeleteWalletRequest extends InferType
interface UpdateWalletRequest extends InferType
abstract class AbstractEdgeGatewayStrategy extends AbstractServiceGateway {
    +{abstract} createWallet(req: CreateWalletRequest): Promise<WalletWithBalance>
    +{abstract} deleteWallet(req: DeleteWalletRequest): Promise<WalletWithBalance>
    +{abstract} getWallets(req: GetWalletsRequest): Promise<WalletWithBalance[]>
    +{abstract} updateWallet(req: UpdateWalletRequest): Promise<WalletWithBalance>
    +{abstract} getTransactions(req: GetTransactionsRequest): Promise<Transaction[]>
}
class EthEdgeGatewayStrategy extends AbstractEdgeGatewayStrategy {
    -configService: ConfigService<Record<string, unknown>, false>
    +createWallet(req: CreateWalletRequest): Promise<WalletWithBalance>
    +updateWallet(req: UpdateWalletRequest): Promise<WalletWithBalance>
    +getWallets(req: GetWalletsRequest): Promise<WalletWithBalance[]>
    +getTransactions(req: GetTransactionsRequest): Promise<Transaction[]>
    +deleteWallet(req: DeleteWalletRequest): Promise<WalletWithBalance>
}
class BtcEdgeGatewayStrategy extends AbstractEdgeGatewayStrategy {
    -configService: ConfigService<Record<string, unknown>, false>
    +createWallet(req: CreateWalletRequest): Promise<WalletWithBalance>
    +updateWallet(req: UpdateWalletRequest): Promise<WalletWithBalance>
    +getWallets(req: GetWalletsRequest): Promise<WalletWithBalance[]>
    +getTransactions(req: GetTransactionsRequest): Promise<Transaction[]>
    +deleteWallet(req: DeleteWalletRequest): Promise<WalletWithBalance>
}
class EdgeGatewayStrategyFactory {
    -ethEdgeGatewayStrategy: EthEdgeGatewayStrategy
    -btcEdgeGatewayStrategy: BtcEdgeGatewayStrategy
    +get(currencyType: CurrencyType): AbstractEdgeGatewayStrategy
}
interface CreateContactRequest extends InferType
interface DeleteContactRequest extends InferType
interface UpdateContactRequest {
    +userId: number
    +contactName: string
    +newName?: string
    +walletAddrs?: string[]
}
class ContactsService {
    -contactRepository: Repository<Contact>
    +findAll(userId: number): Promise<Contact[]>
    +create(createContactRequest: CreateContactRequest): Promise<Contact>
    +update(updateContactRequest: UpdateContactRequest): Promise<Contact>
    +delete(deleteContactRequest: DeleteContactRequest): Promise<Contact>
}
abstract class AbstractNotificationStrategy {
    +{abstract} sendNotification(notification: Notification): Promise<void>
}
interface Notification {
    +to: string
    +title: string
    +body: string
    +attachment?: { filename: string; content: string; }
}
class EmailNotificationStrategy extends AbstractNotificationStrategy {
    -transporter: nodemailer.Transporter
    -from: string
    -configService: ConfigService<Record<string, unknown>, false>
    +sendNotification(notification: Notification): Promise<void>
}
class NotificationStrategyFactory {
    -emailNotificationStrategy: EmailNotificationStrategy
    +get(strategy: NotificationStrategy): AbstractNotificationStrategy
}
enum NotificationStrategy {
    EMAIL
    PUSH_NOTIFICATION
}
class ReportNotificationService {
    -usersRepository: Repository<User>
    -notificationStrategyFactory: NotificationStrategyFactory
    +sendReportNotification(userId: number, wallet: Wallet, fileName: string, csv: string): Promise<void>
}
class ReportsService {
    -edgeGatewayStrategyFactory: EdgeGatewayStrategyFactory
    -contactsService: ContactsService
    -reportNotificationService: ReportNotificationService
    +generateTransactionHistory(req: CreateTransactionHistoryReportRequest): Promise<void>
    -{static} BLANK_LINE: string
}
interface TransactionHistoryReportRow {
    +transactionId: string
    +status: string
    +from: string
    +to: string
    +transactionType: string
    +transactionDate: string
    +transactionTime: string
    +transactionAmount: string
    +transactionFee: string
}
class ReportsController {
    -reportsService: ReportsService
    +create(body: CreateTransactionHistoryReportRequest): Promise<{}>
}
AbstractGateway --> "1" Method
ContactAddress --> "1" User
ContactAddress --> "*" Contact
Contact --> "1" User
Contact --> "*" ContactAddress
ContactBuilder --> "1" Contact
Transaction --> "*" Tag
Transaction --> "1" Contact
TransactionBuilder --> "1" Contact
TransactionBuilder --> "*" Tag
TransactionBuilder --> "1" Tag
TransactionBuilder --> "1" Transaction
Tag --> "1" User
Tag --> "*" Transaction
Filter --> "1" User
Filter --> "1" CurrencyType
FilterBuilder --> "1" CurrencyType
FilterBuilder --> "1" Filter
User --> "1" Role
User --> "*" Wallet
User --> "*" Tag
User --> "*" Contact
User --> "*" Filter
Wallet --> "1" User
Wallet --> "1" CurrencyType
Wallet --> "*" Transaction
WalletBuilder --> "1" User
WalletBuilder --> "*" Transaction
WalletBuilder --> "1" Transaction
WalletBuilder --> "1" Wallet
WalletBuilder --> "1" WalletWithBalance
AbstractEdgeGatewayStrategy --> "1" CreateWalletRequest
AbstractEdgeGatewayStrategy --> "1" WalletWithBalance
AbstractEdgeGatewayStrategy --> "1" DeleteWalletRequest
AbstractEdgeGatewayStrategy --> "1" GetWalletsRequest
AbstractEdgeGatewayStrategy --> "*" WalletWithBalance
AbstractEdgeGatewayStrategy --> "1" UpdateWalletRequest
AbstractEdgeGatewayStrategy --> "1" GetTransactionsRequest
AbstractEdgeGatewayStrategy --> "*" Transaction
EthEdgeGatewayStrategy --> "1" CreateWalletRequest
EthEdgeGatewayStrategy --> "1" WalletWithBalance
EthEdgeGatewayStrategy --> "1" UpdateWalletRequest
EthEdgeGatewayStrategy --> "1" GetWalletsRequest
EthEdgeGatewayStrategy --> "*" WalletWithBalance
EthEdgeGatewayStrategy --> "1" GetTransactionsRequest
EthEdgeGatewayStrategy --> "*" Transaction
EthEdgeGatewayStrategy --> "1" DeleteWalletRequest
BtcEdgeGatewayStrategy --> "1" CreateWalletRequest
BtcEdgeGatewayStrategy --> "1" WalletWithBalance
BtcEdgeGatewayStrategy --> "1" UpdateWalletRequest
BtcEdgeGatewayStrategy --> "1" GetWalletsRequest
BtcEdgeGatewayStrategy --> "*" WalletWithBalance
BtcEdgeGatewayStrategy --> "1" GetTransactionsRequest
BtcEdgeGatewayStrategy --> "*" Transaction
BtcEdgeGatewayStrategy --> "1" DeleteWalletRequest
EdgeGatewayStrategyFactory --> "1" EthEdgeGatewayStrategy
EdgeGatewayStrategyFactory --> "1" BtcEdgeGatewayStrategy
EdgeGatewayStrategyFactory --> "1" CurrencyType
EdgeGatewayStrategyFactory --> "1" AbstractEdgeGatewayStrategy
ContactsService --> "1" Contact
ContactsService --> "*" Contact
ContactsService --> "1" CreateContactRequest
ContactsService --> "1" UpdateContactRequest
ContactsService --> "1" DeleteContactRequest
AbstractNotificationStrategy --> "1" Notification
EmailNotificationStrategy --> "1" Notification
NotificationStrategyFactory --> "1" EmailNotificationStrategy
NotificationStrategyFactory --> "1" NotificationStrategy
NotificationStrategyFactory --> "1" AbstractNotificationStrategy
ReportNotificationService --> "1" User
ReportNotificationService --> "1" NotificationStrategyFactory
ReportNotificationService --> "1" Wallet
ReportsService --> "1" EdgeGatewayStrategyFactory
ReportsService --> "1" ContactsService
ReportsService --> "1" ReportNotificationService
ReportsService --> "1" CreateTransactionHistoryReportRequest
ReportsController --> "1" ReportsService
ReportsController --> "1" CreateTransactionHistoryReportRequest
@enduml