@startuml
title Cryptify Domain Model

class User {
}

class ProUser extends User {
}

class Transaction {
}

class EthereumTransaction extends Transaction {
}

class BitcoinTransaction extends Transaction {
}

class Tag {
}

class Wallet {
}

class EthereumWallet extends Wallet {
}

class BitcoinWallet extends Wallet {
}

class Contact {
}

class EthereumBlockchain {
}

class BitcoinBlockchain {
}

hide circle
skinparam linetype ortho

User --> "*" Wallet : owns
Wallet --> "*" Transaction : has
Transaction ---> "*" Tag : labeled with
Wallet ---> "*" Contact : labeled with
EthereumBlockchain "1" --> "*" EthereumTransaction : from
EthereumBlockchain "1" --> "*" EthereumWallet : from
BitcoinBlockchain "1" --> "*" BitcoinTransaction : from
BitcoinBlockchain "1" --> "*" BitcoinWallet : from
@enduml
